<svg width="51" height="85" viewBox="0 0 51 85" fill="none" xmlns="http://www.w3.org/2000/svg">
<g clip-path="url(#clip0_344_4)">
<path d="M35.0592 42.2732C32.9197 40.889 31.6233 38.5333 31.6233 36H26.1956L26.185 57.5567C26.0902 60.0482 23.9718 61.9965 21.4581 61.8972C18.9445 61.8032 16.9789 59.7034 17.079 57.2119C17.1739 54.7831 19.1869 52.8661 21.6373 52.8661C22.0958 52.8661 22.549 52.9392 22.9811 53.075V47.5801C22.5331 47.5174 22.0852 47.4861 21.6373 47.4809C16.1305 47.4809 11.6512 51.9207 11.6512 57.3791C11.6618 62.8427 16.1252 67.272 21.6426 67.2773C27.1494 67.2773 31.6286 62.8374 31.6286 57.3791V46.4519C33.8261 48.0189 36.4662 48.865 39.1748 48.8598V43.4798C37.7098 43.485 36.2817 43.0619 35.0592 42.2732Z" fill="black"/>
<path d="M0 73.3572H8.7424L7.94141 75.8383H5.67545V85.0052H2.84563V75.833L0 75.8383V73.3572Z" fill="black"/>
<path d="M23.0654 73.3572H32.0081L31.2071 75.8383H28.7409V85.0052H25.9111V75.833L23.0654 75.8383V73.3572Z" fill="black"/>
<path d="M9.27466 77.0605H12.0781V85H9.29047L9.27466 77.0605Z" fill="black"/>
<path d="M13.1901 73.3207H15.9883V78.7425L18.7654 76.042H22.1064L18.5968 79.4163L22.5279 84.9948H19.4452L16.8209 81.1295L15.9883 81.9287V84.9948H13.1901V73.3207Z" fill="black"/>
<path d="M41.6621 73.3207H44.4603V78.7425L47.2374 76.042H50.5784L47.0688 79.4163L51 84.9948H47.9172L45.2929 81.1295L44.4603 81.9287V84.9948H41.6621V73.3207Z" fill="black"/>
<path d="M10.6764 76.1518C11.4564 76.1518 12.0887 75.525 12.0887 74.7519C12.0887 73.9788 11.4564 73.3521 10.6764 73.3521C9.89646 73.3521 9.26416 73.9788 9.26416 74.7519C9.26416 75.525 9.89646 76.1518 10.6764 76.1518Z" fill="black"/>
<path d="M35.7285 75.4935C33.0779 75.4935 30.9331 77.6194 30.9331 80.2468C30.9331 82.8741 33.0779 85 35.7285 85C38.3792 85 40.5239 82.8741 40.5239 80.2468C40.5239 77.6194 38.3739 75.4935 35.7285 75.4935ZM35.7285 82.5555C34.4427 82.5555 33.3993 81.5212 33.3993 80.2468C33.3993 78.9723 34.4427 77.938 35.7285 77.938C37.0143 77.938 38.0577 78.9723 38.0577 80.2468C38.0577 81.5212 37.0143 82.5555 35.7285 82.5555Z" fill="black"/>
</g>
<path d="M26 5V19" stroke="black" stroke-width="2" stroke-linecap="round" stroke-linejoin="round"/>
<path d="M33 12L26 19L19 12" stroke="black" stroke-width="2" stroke-linecap="round" stroke-linejoin="round"/>
<defs>
<clipPath id="clip0_344_4">
<rect width="51" height="49" fill="white" transform="translate(0 36)"/>
</clipPath>
</defs>
</svg>
