<svg width="65" height="89" viewBox="0 0 65 89" fill="none" xmlns="http://www.w3.org/2000/svg">
<g clip-path="url(#clip0_344_3)">
<path d="M25.0894 34.1222C23.2325 34.2098 21.9645 34.5061 20.8559 34.9417C19.7086 35.3888 18.7362 35.9888 17.7687 36.9599C16.8012 37.9309 16.2053 38.904 15.7614 40.053C15.3317 41.164 15.0406 42.4331 14.9586 44.2911C14.8766 46.149 14.8584 46.7462 14.8675 51.4854C14.8766 56.2247 14.8975 56.8188 14.9875 58.6805C15.0762 60.5371 15.3715 61.8048 15.8071 62.9137C16.2549 64.061 16.8542 65.033 17.8256 66.0009C18.797 66.9688 19.7694 67.5632 20.9212 68.0079C22.0311 68.4368 23.3006 68.7293 25.1582 68.8107C27.0158 68.892 27.6137 68.9108 32.3515 68.9018C37.0894 68.8927 37.6859 68.8717 39.5473 68.7834C41.4087 68.6951 42.6698 68.3978 43.779 67.9642C44.9263 67.5154 45.8991 66.9171 46.8663 65.9454C47.8335 64.9737 48.4289 63.9999 48.8726 62.8501C49.3026 61.7402 49.5947 60.4707 49.6753 58.6146C49.7567 56.7517 49.7759 56.157 49.7668 51.4184C49.7577 46.6799 49.7364 46.0858 49.6481 44.2247C49.5598 42.3637 49.2642 41.0998 48.8289 39.9902C48.3804 38.8429 47.7818 37.8715 46.8108 36.903C45.8398 35.9344 44.8652 35.3393 43.7159 34.8967C42.6052 34.467 41.3365 34.1742 39.4789 34.0939C37.6213 34.0136 37.0234 33.993 32.2838 34.0021C27.5442 34.0112 26.9508 34.0314 25.0894 34.1222ZM25.2933 65.6711C23.5917 65.5971 22.6678 65.3143 22.0521 65.0777C21.2367 64.7636 20.6559 64.3838 20.0423 63.7761C19.4287 63.1685 19.0518 62.5856 18.7334 61.772C18.4943 61.1563 18.2064 60.2334 18.1268 58.5318C18.0402 56.6928 18.0221 56.1406 18.012 51.4813C18.0018 46.8219 18.0196 46.2705 18.1003 44.4307C18.1729 42.7305 18.4573 41.8056 18.6936 41.1902C19.0078 40.3738 19.3861 39.7941 19.9952 39.1808C20.6043 38.5675 21.1854 38.1899 21.9997 37.8715C22.6147 37.6314 23.5376 37.3459 25.2385 37.2649C27.0789 37.1777 27.6304 37.1602 32.289 37.1501C36.9477 37.14 37.5005 37.1574 39.3417 37.2384C41.0419 37.3124 41.9672 37.5941 42.5818 37.8318C43.3975 38.1459 43.978 38.5232 44.5912 39.1333C45.2045 39.7434 45.5825 40.3225 45.9008 41.1385C46.1413 41.7518 46.4268 42.6743 46.5071 44.3762C46.5947 46.2167 46.6146 46.7685 46.623 51.4268C46.6314 56.0851 46.615 56.6383 46.5343 58.4774C46.46 60.1789 46.178 61.1032 45.941 61.7196C45.6268 62.5346 45.2481 63.1158 44.6387 63.7287C44.0293 64.3416 43.4488 64.7192 42.6342 65.0376C42.0199 65.2773 41.096 65.5636 39.3965 65.6445C37.556 65.7311 37.0045 65.7493 32.3442 65.7594C27.6838 65.7695 27.1341 65.7506 25.2936 65.6711M39.5204 42.1246C39.5211 42.5388 39.6446 42.9435 39.8753 43.2876C40.1061 43.6316 40.4336 43.8995 40.8166 44.0573C41.1996 44.2152 41.6208 44.2559 42.0269 44.1743C42.433 44.0928 42.8058 43.8927 43.0982 43.5992C43.3906 43.3058 43.5893 42.9322 43.6694 42.5258C43.7494 42.1194 43.7072 41.6983 43.5479 41.316C43.3887 40.9336 43.1196 40.607 42.7747 40.3775C42.4299 40.1481 42.0247 40.026 41.6105 40.0269C41.0552 40.028 40.523 40.2496 40.1311 40.643C39.7391 41.0363 39.5195 41.5693 39.5204 42.1246ZM23.3564 51.4694C23.3662 56.4188 27.3857 60.4219 32.3341 60.4125C37.2824 60.403 41.2883 56.3839 41.2789 51.4345C41.2694 46.4851 37.2489 42.481 32.2999 42.4907C27.3508 42.5005 23.347 46.5207 23.3564 51.4694ZM26.4999 51.4631C26.4976 50.3125 26.8366 49.1871 27.4739 48.2292C28.1112 47.2713 29.0183 46.5238 30.0804 46.0814C31.1426 45.639 32.312 45.5215 33.4409 45.7437C34.5698 45.966 35.6075 46.518 36.4227 47.3299C37.2379 48.1419 37.794 49.1774 38.0207 50.3054C38.2474 51.4334 38.1345 52.6033 37.6963 53.6672C37.2581 54.731 36.5143 55.6411 35.5589 56.2822C34.6035 56.9233 33.4794 57.2667 32.3288 57.269C31.5648 57.2706 30.808 57.1217 30.1016 56.8308C29.3952 56.5399 28.753 56.1126 28.2117 55.5735C27.6704 55.0343 27.2406 54.3938 26.9469 53.6886C26.6532 52.9833 26.5013 52.2271 26.4999 51.4631Z" fill="black"/>
</g>
<g clip-path="url(#clip1_344_3)">
<path d="M3.32221 71.0623C2.00118 71.6054 0.548567 73.1381 0.0900769 75.0659C-0.491624 77.5063 1.92679 78.5369 2.12439 78.2006C2.3569 77.8018 1.68964 77.668 1.55339 76.4026C1.37808 74.7662 2.15044 72.938 3.12507 72.1358C3.30687 71.9892 3.29805 72.1961 3.29805 72.5776C3.29805 73.2656 3.25898 79.4208 3.25898 80.7059C3.25898 82.4455 3.18644 82.9932 3.05253 83.534C2.92091 84.084 2.70797 84.455 2.86839 84.5993C3.05019 84.7588 3.82255 84.3792 4.27033 83.7652C4.80599 83.0297 4.99477 82.1458 5.02965 81.1865C5.06916 80.0312 5.06686 78.1942 5.06916 77.1486C5.06916 76.1869 5.0845 73.3757 5.05381 71.6831C5.04499 71.2693 3.87322 70.8357 3.32221 71.0623ZM64.2278 80.1947C64.0389 80.1947 63.9492 80.3888 63.8767 80.7146C63.6265 81.8507 63.3633 82.107 63.023 82.107C62.6436 82.107 62.3031 81.5447 62.2135 80.419C62.1455 79.535 62.1563 77.9051 62.2441 76.2838C62.2618 75.9517 62.1692 75.6223 61.2607 75.2966C60.8681 75.1587 60.2995 74.9517 60.0168 75.6242C59.2156 77.5196 58.9041 79.0284 58.8292 79.6387C58.8275 79.6707 58.7879 79.6753 58.7809 79.6022C58.7353 79.1125 58.6298 78.2221 58.6168 76.3505C58.6121 75.9887 58.5353 75.6758 58.1229 75.4214C57.8574 75.2578 57.0498 74.9645 56.7577 75.3117C56.5075 75.5963 56.216 76.3596 55.9109 77.2651C55.665 78.0024 55.4939 78.5026 55.4939 78.5026C55.4939 78.5026 55.4956 76.5145 55.5004 75.7599C55.5004 75.4753 55.3028 75.3807 55.2438 75.3633C54.9736 75.2857 54.4402 75.1587 54.2166 75.1587C53.9381 75.1587 53.872 75.3117 53.872 75.5337C53.872 75.5616 53.826 78.1486 53.826 79.9576V80.212C53.6744 81.0444 53.1745 82.1742 52.6324 82.1742C52.0902 82.1742 51.8335 81.7018 51.8335 79.546C51.8335 78.2888 51.873 77.7416 51.8907 76.8316C51.9014 76.3076 51.9232 75.9047 51.9214 75.8119C51.9167 75.5337 51.4229 75.3912 51.1946 75.3396C50.9644 75.2857 50.7645 75.2683 50.6069 75.2747C50.3874 75.2879 50.2316 75.43 50.2316 75.6287V75.9302C49.9485 75.4908 49.4895 75.1843 49.1827 75.0961C48.3619 74.8567 47.5035 75.07 46.8563 75.9581C46.3429 76.6657 46.0332 77.4652 45.9128 78.6146C45.8226 79.4555 45.8515 80.3071 46.0114 81.027C45.8184 81.8397 45.4627 82.1742 45.0744 82.1742C44.508 82.1742 44.1003 81.2683 44.1464 79.7009C44.1794 78.6707 44.3877 77.9485 44.6178 76.9005C44.7169 76.4542 44.6355 76.2217 44.436 75.9951C44.2538 75.7923 43.8631 75.6867 43.3038 75.8138C42.9062 75.9065 42.3338 76.0056 41.8134 76.0814C41.8134 76.0814 41.8441 75.9581 41.8706 75.7407C42.0046 74.6 40.7426 74.6927 40.3409 75.0573C40.0996 75.2747 39.935 75.5314 39.8735 75.9929C39.775 76.726 40.3827 77.0709 40.3827 77.0709C40.1833 77.9677 39.6959 79.1403 39.1891 79.9878C38.9189 80.4428 38.7124 80.7772 38.4451 81.1348C38.4427 81.0033 38.4427 80.8694 38.4427 80.7383C38.4381 78.8517 38.4622 77.3665 38.4734 76.8316C38.4845 76.3076 38.5064 75.9152 38.5064 75.8224C38.5018 75.6196 38.3813 75.5401 38.1264 75.4451C37.9028 75.3592 37.6373 75.2966 37.363 75.2747C37.0184 75.2491 36.8078 75.43 36.8143 75.6434V75.9302C36.5292 75.4908 36.0703 75.1843 35.7675 75.0961C34.9445 74.8567 34.0867 75.07 33.4394 75.9581C32.928 76.6657 32.5899 77.6552 32.4932 78.6036C32.4058 79.4921 32.421 80.2422 32.5438 80.8762C32.4123 81.5098 32.037 82.1742 31.6115 82.1742C31.0693 82.1742 30.7597 81.7018 30.7597 79.546C30.7597 78.2888 30.7992 77.7416 30.8192 76.8316C30.8299 76.3076 30.8499 75.9047 30.8475 75.8119C30.8452 75.5337 30.3519 75.3912 30.1213 75.3396C29.8823 75.2838 29.6735 75.2665 29.5153 75.2747C29.3048 75.2921 29.1578 75.4753 29.1578 75.6155V75.9302C28.8728 75.4908 28.4138 75.1843 28.1088 75.0961C27.2881 74.8567 26.4367 75.0746 25.7848 75.9581C25.3593 76.5342 25.0147 77.1742 24.8371 78.5931C24.7888 79.0028 24.7646 79.3861 24.7669 79.7443C24.5977 80.7616 23.8495 81.9347 23.2394 81.9347C22.8795 81.9347 22.5373 81.2531 22.5373 79.7982C22.5373 77.8622 22.66 75.1025 22.6819 74.8352C22.6819 74.8352 23.4542 74.822 23.6058 74.8202C23.9899 74.8179 24.3409 74.8266 24.8525 74.8005C25.1115 74.7878 25.3593 73.88 25.0915 73.7658C24.9729 73.716 24.1215 73.6708 23.7834 73.6644C23.4984 73.658 22.7102 73.6 22.7102 73.6C22.7102 73.6 22.781 71.7695 22.7963 71.5776C22.8093 71.4136 22.5987 71.3319 22.4759 71.2821C22.1792 71.1573 21.9137 71.0989 21.6022 71.0363C21.1656 70.9481 20.9703 71.0345 20.9331 71.394C20.8759 71.9399 20.8452 73.5397 20.8452 73.5397C20.5248 73.5397 19.4387 73.4767 19.12 73.4767C18.8243 73.4767 18.5035 74.7274 18.9141 74.7425C19.3861 74.7599 20.2045 74.7772 20.7485 74.7918C20.7485 74.7918 20.7242 77.5972 20.7242 78.4615V78.7288C20.4239 80.2613 19.3726 81.0896 19.3726 81.0896C19.5986 80.0741 19.1378 79.313 18.304 78.6707C17.9967 78.4314 17.3912 77.9805 16.7128 77.4912C16.7128 77.4912 17.1057 77.1098 17.4545 76.3464C17.7005 75.8051 17.7117 75.1824 17.1057 75.0463C16.1051 74.8202 15.2821 75.5424 15.0342 76.314C14.8455 76.9092 14.9445 77.3532 15.3193 77.8124L15.4048 77.9161C15.1812 78.3427 14.8696 78.9183 14.6083 79.3647C13.8778 80.6045 13.3268 81.5835 12.912 81.5835C12.5786 81.5835 12.5828 80.5894 12.5828 79.6579C12.5828 78.8558 12.6442 77.6465 12.6926 76.3962C12.7079 75.9841 12.4973 75.747 12.1444 75.5337C11.929 75.4044 11.4724 75.15 11.2069 75.15C10.8122 75.15 9.66639 75.2016 8.58485 78.2738C8.4486 78.662 8.18077 79.367 8.18077 79.367L8.20497 75.6717C8.20497 75.5853 8.15893 75.5036 8.05152 75.4451C7.86924 75.3482 7.38006 75.15 6.94995 75.15C6.74117 75.15 6.63793 75.245 6.63793 75.4323L6.60306 81.2102C6.60306 81.6501 6.61376 82.1631 6.65795 82.3874C6.70165 82.6117 6.77419 82.7949 6.86207 82.9046C6.94995 83.0105 7.05273 83.0923 7.21964 83.1289C7.37542 83.1613 8.23332 83.2668 8.27751 82.9457C8.33237 82.5597 8.33421 82.144 8.78433 80.5853C9.4865 78.1618 10.3997 76.9805 10.8298 76.5597C10.9066 76.4867 10.9921 76.4821 10.9875 76.6032C10.9679 77.1353 10.9042 78.4615 10.8605 79.589C10.7442 82.6095 11.3013 83.1677 12.1025 83.1677C12.7126 83.1677 13.5728 82.5706 14.4967 81.0618C15.0738 80.1194 15.6313 79.1988 16.0349 78.5328C16.3116 78.7868 16.6273 79.0609 16.9411 79.3541C17.6721 80.033 17.9111 80.6799 17.7512 81.2925C17.6302 81.762 17.1718 82.2449 16.3576 81.7753C16.1205 81.6392 16.0196 81.5337 15.7805 81.3783C15.6531 81.2943 15.4555 81.2705 15.3393 81.3568C15.0319 81.5835 14.8584 81.8699 14.7575 82.2258C14.6631 82.5729 15.0166 82.7538 15.383 82.9132C15.6968 83.0535 16.373 83.1764 16.805 83.1915C18.4882 83.2477 19.8357 82.3938 20.7727 80.1947C20.9419 82.0942 21.6548 83.17 22.8948 83.17C23.7262 83.17 24.5581 82.1157 24.9227 81.0787C25.0254 81.5012 25.1812 81.8676 25.3812 82.1806C26.3381 83.6679 28.1944 83.3491 29.1248 82.0855C29.4144 81.693 29.4587 81.5528 29.4587 81.5528C29.5944 82.7456 30.5732 83.1654 31.133 83.1654C31.7626 83.1654 32.408 82.8726 32.8619 81.8676C32.9168 81.9777 32.9739 82.0814 33.04 82.1806C33.9946 83.6679 35.8508 83.3491 36.7837 82.0855C36.8255 82.0229 36.865 81.9713 36.8975 81.9215L36.9264 82.7063C36.9264 82.7063 36.393 83.1851 36.0662 83.4802C34.6288 84.7762 33.5357 85.7593 33.4548 86.9018C33.3538 88.3613 34.5563 88.9027 35.4691 88.9735C36.4349 89.0493 37.2644 88.5253 37.7731 87.788C38.2209 87.1411 38.5152 85.7506 38.4934 84.3751C38.4846 83.8232 38.4711 83.1247 38.458 82.3724C38.9649 81.7991 39.5354 81.0699 40.058 80.2167C40.6305 79.2893 41.2405 78.0408 41.552 77.0687C41.552 77.0687 42.0854 77.0732 42.6517 77.0385C42.834 77.0276 42.8866 77.0646 42.8513 77.1938C42.8117 77.351 42.1361 79.9146 42.7526 81.6223C43.1763 82.7904 44.1263 83.1677 44.6926 83.1677C45.3529 83.1677 45.9853 82.6762 46.3228 81.9475C46.3647 82.0275 46.4065 82.107 46.4549 82.1806C47.4095 83.6679 49.2592 83.3468 50.1985 82.0855C50.4115 81.7991 50.5301 81.5528 50.5301 81.5528C50.7318 82.7885 51.7107 83.17 52.2701 83.17C52.8559 83.17 53.4088 82.9351 53.8589 81.8914C53.8766 82.3509 53.905 82.726 53.9533 82.8443C53.9816 82.9179 54.1486 83.0083 54.2672 83.0535C54.8023 83.2477 55.3468 83.1549 55.5464 83.1138C55.6868 83.0859 55.7966 82.9781 55.81 82.6936C55.849 81.9475 55.8249 80.6949 56.0555 79.7616C56.4437 78.2007 56.8037 77.5949 56.9747 77.2952C57.0697 77.1267 57.179 77.0988 57.1812 77.2756C57.1877 77.6356 57.2077 78.6922 57.3589 80.1152C57.4667 81.1586 57.6137 81.7772 57.7276 81.9736C58.048 82.5318 58.4475 82.5578 58.7701 82.5578C58.9765 82.5578 59.4067 82.5016 59.369 82.1458C59.3495 81.9736 59.3825 80.9019 59.7619 79.3628C60.0121 78.356 60.4268 77.4483 60.5761 77.1161C60.6333 76.9933 60.6575 77.0883 60.6575 77.1075C60.6245 77.7996 60.5542 80.0654 60.8393 81.303C61.2304 82.9827 62.3556 83.17 62.7485 83.17C63.5847 83.17 64.2718 82.5446 64.502 80.8978C64.5592 80.5008 64.4756 80.1947 64.2278 80.1947ZM29.1401 79.1773C29.0941 80.0481 28.9206 80.7771 28.6444 81.3052C28.1394 82.2645 27.1458 82.5664 26.7087 81.1846C26.3906 80.1865 26.498 78.8237 26.632 78.0883C26.8249 76.9974 27.3145 76.2258 28.0781 76.2966C28.8593 76.3724 29.241 77.3619 29.1401 79.1773ZM36.7967 79.1901C36.753 80.0115 36.5358 80.8392 36.2987 81.3052C35.8095 82.2709 34.7865 82.5729 34.363 81.1846C34.0738 80.2335 34.1416 79.0069 34.2862 78.2349C34.4731 77.2303 34.9227 76.2966 35.7328 76.2966C36.5205 76.2966 36.9087 77.1463 36.7967 79.1901ZM36.9966 84.804C36.9854 86.307 36.7465 87.6222 36.2327 88.0059C35.4998 88.5491 34.5145 88.1393 34.7187 87.0443C34.8986 86.074 35.7523 85.0846 36.9989 83.8749C36.9989 83.8749 37.0033 84.1507 36.9966 84.804ZM50.2162 79.1988C50.1721 80.1024 49.9679 80.8073 49.7159 81.3052C49.2263 82.2709 48.2126 82.5706 47.7802 81.1846C47.5453 80.4276 47.5342 79.1641 47.7034 78.1102C47.8745 77.0362 48.3554 76.2258 49.1495 76.2966C49.9349 76.3701 50.3018 77.3619 50.2162 79.1988Z" fill="#231E1F"/>
</g>
<path d="M32 5V19" stroke="black" stroke-width="2" stroke-linecap="round" stroke-linejoin="round"/>
<path d="M39 12L32 19L25 12" stroke="black" stroke-width="2" stroke-linecap="round" stroke-linejoin="round"/>
<defs>
<clipPath id="clip0_344_3">
<rect width="34.9038" height="34.9038" fill="white" transform="translate(14.8654 34)"/>
</clipPath>
<clipPath id="clip1_344_3">
<rect width="64.5192" height="17.9808" fill="white" transform="translate(0 71)"/>
</clipPath>
</defs>
</svg>
