<svg width="58" height="93" viewBox="0 0 58 93" fill="none" xmlns="http://www.w3.org/2000/svg">
<g filter="url(#filter0_d_344_2)">
<g clip-path="url(#clip0_344_2)">
<path fill-rule="evenodd" clip-rule="evenodd" d="M30.7152 70.8658V81.7382C30.7152 84.0163 29.7796 85 27.3368 85H25.7255V82.6184H27.1289C27.8565 82.6184 28.1684 82.3595 28.1684 81.6865V70.8658H30.7152ZM14.5509 70.814V80.3404C14.5509 82.9808 12.5239 84.9482 9.56131 84.9482C7.63823 84.9482 5.92305 84.2752 4.7796 83.0844L6.49478 81.4794C7.22243 82.2042 8.10601 82.6184 9.50934 82.6184C10.9646 82.6184 12.0561 81.6865 12.0561 80.4439V79.512H12.0041C11.3804 80.2368 10.289 80.651 8.98958 80.651C6.13096 80.651 3.948 78.58 3.948 75.7325C3.948 72.9885 6.027 70.9175 8.88563 70.9175C10.185 70.9175 11.3285 71.2799 12.0041 72.0048H12.0561V70.9175H14.5509V70.814ZM21.3596 70.814C24.4262 70.814 26.6091 72.9367 26.6091 75.7325C26.6091 78.5283 24.4262 80.651 21.3596 80.651C18.3451 80.651 16.1102 78.5283 16.1102 75.7325C16.1102 72.9367 18.2931 70.814 21.3596 70.814ZM37.316 70.814C40.4345 70.814 42.3576 73.0403 42.3576 75.7843V76.5091H34.8212C34.8732 77.4928 36.0686 78.4765 37.6278 78.4765C38.6673 78.4765 39.395 78.2176 40.1746 77.4928L41.9418 78.7354C41.2141 79.6673 39.7588 80.5992 37.7838 80.5992C34.5093 80.5992 32.3264 78.6836 32.3264 75.7325C32.2224 72.8849 34.3534 70.814 37.316 70.814ZM46.3596 68.0182V74.697H46.4116L50.6216 70.7622H54L49.6341 74.8523L53.948 80.5474H50.9335L47.9709 76.4055H47.9189L46.3596 77.907V80.5474H43.8648V67.9664H46.3596V68.0182ZM21.3596 73.092C19.7484 73.092 18.7089 74.2311 18.7089 75.7325C18.7089 77.2339 19.7484 78.373 21.3596 78.373C22.9709 78.373 24.0104 77.2339 24.0104 75.7325C24.0104 74.2311 22.9709 73.092 21.3596 73.092ZM9.40538 73.092C7.6902 73.092 6.59873 74.1275 6.59873 75.6289C6.59873 77.2857 7.63823 78.2694 9.30143 78.2694C10.8087 78.2694 11.9522 77.3375 11.9522 76.1985V75.1112C11.9522 74.0757 10.8087 73.092 9.40538 73.092ZM37.368 72.9367C35.9646 72.9367 34.9771 73.6615 34.8732 74.7488H39.8628C39.7068 73.6098 38.7193 72.9367 37.368 72.9367Z" fill="black"/>
<path fill-rule="evenodd" clip-rule="evenodd" d="M29.104 31C38.3036 31 45.736 38.4036 45.684 47.6194C45.684 54.5053 41.526 60.4075 35.4969 62.9444C35.185 63.0997 34.7173 63.2033 34.3015 63.2033C32.5863 63.2033 31.183 61.8054 31.183 60.0968C31.183 58.8025 31.9626 57.7152 33.106 57.2493L33.3139 57.1457C36.9522 55.5407 39.447 51.9166 39.447 47.6711C39.447 41.9243 34.7692 37.3164 29.052 37.3164C23.3347 37.3164 18.657 41.976 18.657 47.6711C18.657 51.9684 21.3077 55.6443 25.0499 57.2493L25.2058 57.3011C26.2453 57.8188 26.973 58.8543 26.973 60.0968C26.973 61.8054 25.5697 63.2033 23.8545 63.2033C23.4387 63.2033 22.9709 63.0997 22.6591 62.9444C16.63 60.3557 12.4719 54.5053 12.4719 47.6194C12.42 38.4036 19.9044 31 29.104 31ZM29.104 41.3547C32.5343 41.3547 35.341 44.1505 35.341 47.5676C35.341 50.9847 32.5343 53.7804 29.104 53.7804C25.6736 53.7804 22.867 50.9847 22.867 47.5676C22.867 44.1505 25.6216 41.3547 29.104 41.3547Z" fill="#00AA13"/>
</g>
<path d="M29 5V19" stroke="black" stroke-width="2" stroke-linecap="round" stroke-linejoin="round"/>
<path d="M36 12L29 19L22 12" stroke="black" stroke-width="2" stroke-linecap="round" stroke-linejoin="round"/>
</g>
<defs>
<filter id="filter0_d_344_2" x="0" y="0" width="58" height="93" filterUnits="userSpaceOnUse" color-interpolation-filters="sRGB">
<feFlood flood-opacity="0" result="BackgroundImageFix"/>
<feColorMatrix in="SourceAlpha" type="matrix" values="0 0 0 0 0 0 0 0 0 0 0 0 0 0 0 0 0 0 127 0" result="hardAlpha"/>
<feOffset dy="4"/>
<feGaussianBlur stdDeviation="2"/>
<feComposite in2="hardAlpha" operator="out"/>
<feColorMatrix type="matrix" values="0 0 0 0 0 0 0 0 0 0 0 0 0 0 0 0 0 0 0.25 0"/>
<feBlend mode="normal" in2="BackgroundImageFix" result="effect1_dropShadow_344_2"/>
<feBlend mode="normal" in="SourceGraphic" in2="effect1_dropShadow_344_2" result="shape"/>
</filter>
<clipPath id="clip0_344_2">
<rect width="50" height="54" fill="white" transform="translate(4 31)"/>
</clipPath>
</defs>
</svg>
