<svg width="9" height="9" viewBox="0 0 9 9" fill="none" xmlns="http://www.w3.org/2000/svg">
<path d="M2.63631 0.031472C2.15751 0.0540621 1.83054 0.130472 1.54469 0.242793C1.24886 0.358083 0.998117 0.512794 0.748635 0.763175C0.499152 1.01356 0.345521 1.26448 0.23104 1.56076C0.120249 1.84723 0.0451878 2.17447 0.0240375 2.65354C0.00288733 3.13261 -0.00179272 3.2866 0.000547302 4.50863C0.00288733 5.73065 0.00828738 5.88383 0.0315076 6.36389C0.0543678 6.84261 0.130509 7.16949 0.24283 7.45542C0.358301 7.75125 0.512832 8.0019 0.763305 8.25147C1.01378 8.50104 1.26452 8.65431 1.56152 8.76897C1.84773 8.87958 2.17506 8.955 2.65404 8.97597C3.13303 8.99694 3.2872 9.0018 4.50887 8.99946C5.73055 8.99712 5.88436 8.99172 6.36433 8.96895C6.84431 8.94618 7.16948 8.8695 7.4555 8.75772C7.75134 8.64198 8.00217 8.48772 8.25156 8.23716C8.50095 7.9866 8.65449 7.7355 8.76889 7.43904C8.87977 7.15284 8.9551 6.82551 8.97589 6.34688C8.99686 5.86655 9.00181 5.71319 8.99947 4.49135C8.99713 3.2695 8.99164 3.11632 8.96887 2.63644C8.9461 2.15656 8.86987 1.83067 8.75764 1.54456C8.64198 1.24873 8.48763 0.998255 8.23725 0.748505C7.98687 0.498754 7.73559 0.345303 7.43921 0.231183C7.15283 0.120392 6.82568 0.0448821 6.34669 0.024182C5.86771 0.00348194 5.71354 -0.00182808 4.49141 0.000511927C3.26929 0.00285194 3.11629 0.00807195 2.63631 0.031472ZM2.68887 8.16642C2.25012 8.14734 2.01189 8.07444 1.85313 8.01342C1.64288 7.93242 1.49312 7.8345 1.3349 7.67781C1.17668 7.52112 1.07948 7.37082 0.997397 7.16103C0.935747 7.00227 0.861496 6.76431 0.840976 6.32555C0.818656 5.85134 0.813976 5.70896 0.811365 4.50755C0.808755 3.30613 0.813345 3.16393 0.834136 2.68954C0.852856 2.25115 0.926207 2.01265 0.987137 1.85398C1.06814 1.64347 1.1657 1.49398 1.32275 1.33585C1.4798 1.17772 1.62965 1.08034 1.83963 0.998255C1.99821 0.936335 2.23617 0.862715 2.67474 0.841835C3.14932 0.819335 3.29152 0.814835 4.49276 0.812225C5.69401 0.809615 5.83657 0.814115 6.31132 0.834995C6.74972 0.854075 6.98831 0.926705 7.1468 0.987995C7.35713 1.069 7.5068 1.16629 7.66493 1.32361C7.82307 1.48093 7.92054 1.63024 8.00262 1.84066C8.06463 1.99879 8.13825 2.23666 8.15895 2.6755C8.18154 3.15007 8.18667 3.29236 8.18883 4.49351C8.19099 5.69465 8.18676 5.8373 8.16597 6.31151C8.1468 6.75027 8.07408 6.98859 8.01297 7.14753C7.93197 7.35768 7.83432 7.50753 7.67717 7.66557C7.52003 7.82361 7.37036 7.92099 7.1603 8.00307C7.0019 8.0649 6.76367 8.1387 6.32545 8.15958C5.85088 8.1819 5.70867 8.18658 4.50698 8.18919C3.30529 8.1918 3.16354 8.18694 2.68896 8.16642M6.3574 2.09491C6.35758 2.20172 6.38943 2.30608 6.44892 2.39478C6.50841 2.48349 6.59288 2.55256 6.69163 2.59327C6.79038 2.63397 6.89898 2.64447 7.00371 2.62344C7.10843 2.60242 7.20456 2.55081 7.27995 2.47515C7.35533 2.39948 7.40659 2.30316 7.42723 2.19836C7.44787 2.09357 7.43697 1.985 7.39591 1.8864C7.35485 1.7878 7.28546 1.70359 7.19654 1.64443C7.10761 1.58526 7.00314 1.55379 6.89633 1.55401C6.75314 1.55429 6.61593 1.61144 6.51486 1.71287C6.4138 1.8143 6.35716 1.95172 6.3574 2.09491ZM2.18946 4.50449C2.19198 5.78069 3.22843 6.81291 4.50437 6.81048C5.78032 6.80805 6.81326 5.77169 6.81083 4.49549C6.8084 3.21928 5.77168 2.1868 4.49555 2.18932C3.21943 2.19184 2.18703 3.22846 2.18946 4.50449ZM3.00001 4.50287C2.99942 4.20619 3.08682 3.916 3.25116 3.66899C3.4155 3.42199 3.64939 3.22926 3.92327 3.11519C4.19714 3.00111 4.49869 2.97081 4.78978 3.02811C5.08087 3.08541 5.34844 3.22775 5.55864 3.43712C5.76884 3.64649 5.91223 3.91348 5.97069 4.20435C6.02915 4.49521 6.00004 4.79687 5.88704 5.07119C5.77405 5.34551 5.58225 5.58017 5.3359 5.74548C5.08955 5.91079 4.7997 5.99934 4.50302 5.99993C4.30603 6.00035 4.11088 5.96195 3.92873 5.88694C3.74657 5.81192 3.58098 5.70176 3.44141 5.56274C3.30183 5.42372 3.19102 5.25856 3.11528 5.07671C3.03954 4.89485 3.00037 4.69986 3.00001 4.50287Z" fill="white"/>
</svg>
