<svg width="9" height="9" viewBox="0 0 9 9" fill="none" xmlns="http://www.w3.org/2000/svg">
<path fill-rule="evenodd" clip-rule="evenodd" d="M7.68865 1.30783C6.84272 0.464883 5.71765 0.000427675 4.5189 0C2.04877 0 0.0384615 2.00045 0.037602 4.45937C0.0371723 5.24543 0.243662 6.01268 0.635798 6.68885L0 9L2.37559 8.37987C3.03008 8.73528 3.76708 8.92237 4.51697 8.9226H4.5189C6.9886 8.9226 8.99915 6.92192 9 4.463C9.00043 3.2713 8.5348 2.151 7.68865 1.30804V1.30783ZM4.5189 8.16946H4.5174C3.84915 8.16926 3.1936 7.99047 2.62162 7.65282L2.48561 7.57243L1.07585 7.94043L1.45209 6.57251L1.36356 6.43223C0.99076 5.84205 0.793725 5.15989 0.794155 4.4596C0.795015 2.41594 2.46584 0.753136 4.52043 0.753136C5.51525 0.753564 6.45038 1.13954 7.15363 1.84029C7.8569 2.54082 8.24388 3.47231 8.24345 4.46258C8.24258 6.50645 6.57177 8.16926 4.5189 8.16926V8.16946ZM6.56188 5.39342C6.44993 5.33761 5.89945 5.06816 5.79673 5.03096C5.69403 4.99374 5.61948 4.97516 5.5449 5.08677C5.47035 5.19841 5.2557 5.44945 5.19038 5.52364C5.12505 5.59806 5.05972 5.60726 4.94777 5.55143C4.83585 5.49562 4.47508 5.37802 4.04728 4.99845C3.71445 4.70292 3.48968 4.33813 3.42438 4.22649C3.35905 4.11488 3.4175 4.05457 3.47335 3.99919C3.52363 3.94916 3.5853 3.86897 3.64138 3.80396C3.69747 3.73895 3.71595 3.69234 3.75332 3.61813C3.79072 3.54371 3.77203 3.47872 3.7441 3.42289C3.71615 3.36709 3.49227 2.81858 3.3988 2.59556C3.3079 2.3783 3.21552 2.40781 3.14698 2.40418C3.08165 2.40097 3.0071 2.40033 2.93233 2.40033C2.85755 2.40033 2.73635 2.42813 2.63365 2.53975C2.53095 2.65136 2.24173 2.92101 2.24173 3.4693C2.24173 4.01758 2.6429 4.5477 2.69898 4.62211C2.75505 4.69653 3.4886 5.82195 4.61172 6.3048C4.87882 6.41962 5.08745 6.48826 5.2501 6.53959C5.51828 6.62448 5.76235 6.61251 5.9553 6.58385C6.1704 6.55178 6.61775 6.3142 6.711 6.05396C6.80425 5.79371 6.80425 5.57046 6.77633 5.52406C6.7484 5.47766 6.67363 5.44965 6.56168 5.39384L6.56188 5.39342Z" fill="white"/>
</svg>
